<mxfile host="Electron" modified="2024-02-07T05:43:58.346Z" agent="Mozilla/5.0 (Windows NT 10.0; Win64; x64) AppleWebKit/537.36 (KHTML, like Gecko) draw.io/22.1.2 Chrome/114.0.5735.289 Electron/25.9.4 Safari/537.36" etag="5Bo7fwXecTb_WNDMP27y" version="22.1.2" type="device">
  <diagram id="C5RBs43oDa-KdzZeNtuy" name="Page-1">
    <mxGraphModel dx="2769" dy="1344" grid="1" gridSize="10" guides="1" tooltips="1" connect="1" arrows="1" fold="1" page="1" pageScale="1" pageWidth="827" pageHeight="1169" math="0" shadow="0">
      <root>
        <mxCell id="WIyWlLk6GJQsqaUBKTNV-0" />
        <mxCell id="WIyWlLk6GJQsqaUBKTNV-1" parent="WIyWlLk6GJQsqaUBKTNV-0" />
        <mxCell id="ZKd3v-_6NxZxwiEtNDbP-2" style="edgeStyle=orthogonalEdgeStyle;rounded=0;orthogonalLoop=1;jettySize=auto;html=1;entryX=0.5;entryY=0;entryDx=0;entryDy=0;" edge="1" parent="WIyWlLk6GJQsqaUBKTNV-1" source="ZKd3v-_6NxZxwiEtNDbP-0" target="ZKd3v-_6NxZxwiEtNDbP-1">
          <mxGeometry relative="1" as="geometry" />
        </mxCell>
        <mxCell id="ZKd3v-_6NxZxwiEtNDbP-0" value="Начало" style="ellipse;whiteSpace=wrap;html=1;" vertex="1" parent="WIyWlLk6GJQsqaUBKTNV-1">
          <mxGeometry x="300" y="10" width="50" height="20" as="geometry" />
        </mxCell>
        <mxCell id="ZKd3v-_6NxZxwiEtNDbP-6" value="" style="edgeStyle=orthogonalEdgeStyle;rounded=0;orthogonalLoop=1;jettySize=auto;html=1;" edge="1" parent="WIyWlLk6GJQsqaUBKTNV-1" source="ZKd3v-_6NxZxwiEtNDbP-1" target="ZKd3v-_6NxZxwiEtNDbP-5">
          <mxGeometry relative="1" as="geometry" />
        </mxCell>
        <mxCell id="ZKd3v-_6NxZxwiEtNDbP-1" value="int main()" style="rounded=0;whiteSpace=wrap;html=1;" vertex="1" parent="WIyWlLk6GJQsqaUBKTNV-1">
          <mxGeometry x="295" y="100" width="60" height="20" as="geometry" />
        </mxCell>
        <mxCell id="ZKd3v-_6NxZxwiEtNDbP-3" value="" style="endArrow=none;dashed=1;html=1;dashPattern=1 3;strokeWidth=2;rounded=0;" edge="1" parent="WIyWlLk6GJQsqaUBKTNV-1">
          <mxGeometry width="50" height="50" relative="1" as="geometry">
            <mxPoint x="330" y="60" as="sourcePoint" />
            <mxPoint x="480" y="60" as="targetPoint" />
          </mxGeometry>
        </mxCell>
        <mxCell id="ZKd3v-_6NxZxwiEtNDbP-4" value="&lt;div style=&quot;background-color: rgb(255, 255, 255); font-family: Consolas, &amp;quot;Courier New&amp;quot;, monospace; font-size: 14px; line-height: 19px;&quot;&gt;&lt;div&gt;#include&lt;span style=&quot;color: #0000ff;&quot;&gt; &lt;/span&gt;&lt;span style=&quot;color: #a31515;&quot;&gt;&amp;lt;iostream&amp;gt;&lt;/span&gt;&lt;/div&gt;&lt;div&gt;&lt;span style=&quot;color: #0000ff;&quot;&gt;using&lt;/span&gt; &lt;span style=&quot;color: #0000ff;&quot;&gt;namespace&lt;/span&gt; std;&lt;/div&gt;&lt;div&gt;&lt;span style=&quot;color: #0000ff;&quot;&gt;const&lt;/span&gt; &lt;span style=&quot;color: #0000ff;&quot;&gt;int&lt;/span&gt; n=&lt;span style=&quot;color: #098658;&quot;&gt;5&lt;/span&gt;;&lt;/div&gt;&lt;div&gt;&lt;span style=&quot;color: #0000ff;&quot;&gt;const&lt;/span&gt; &lt;span style=&quot;color: #0000ff;&quot;&gt;int&lt;/span&gt; m=&lt;span style=&quot;color: #098658;&quot;&gt;5&lt;/span&gt;;&lt;/div&gt;&lt;div&gt;&lt;span style=&quot;color: #0000ff;&quot;&gt;int&lt;/span&gt; matr[n][m];&lt;/div&gt;&lt;div&gt;&lt;span style=&quot;color: #0000ff;&quot;&gt;int&lt;/span&gt; summ=&lt;span style=&quot;color: #098658;&quot;&gt;0&lt;/span&gt;;&lt;/div&gt;&lt;div&gt;&lt;span style=&quot;color: #0000ff;&quot;&gt;float&lt;/span&gt; b;&lt;/div&gt;&lt;div&gt;&lt;span style=&quot;color: #0000ff;&quot;&gt;int&lt;/span&gt; s=&lt;span style=&quot;color: #098658;&quot;&gt;0&lt;/span&gt;;&lt;/div&gt;&lt;/div&gt;" style="whiteSpace=wrap;html=1;aspect=fixed;" vertex="1" parent="WIyWlLk6GJQsqaUBKTNV-1">
          <mxGeometry x="480" y="10" width="180" height="180" as="geometry" />
        </mxCell>
        <mxCell id="ZKd3v-_6NxZxwiEtNDbP-8" value="" style="edgeStyle=orthogonalEdgeStyle;rounded=0;orthogonalLoop=1;jettySize=auto;html=1;" edge="1" parent="WIyWlLk6GJQsqaUBKTNV-1" source="ZKd3v-_6NxZxwiEtNDbP-5" target="ZKd3v-_6NxZxwiEtNDbP-7">
          <mxGeometry relative="1" as="geometry" />
        </mxCell>
        <mxCell id="ZKd3v-_6NxZxwiEtNDbP-13" style="edgeStyle=orthogonalEdgeStyle;rounded=0;orthogonalLoop=1;jettySize=auto;html=1;" edge="1" parent="WIyWlLk6GJQsqaUBKTNV-1" source="ZKd3v-_6NxZxwiEtNDbP-5">
          <mxGeometry relative="1" as="geometry">
            <mxPoint x="325.0050000000001" y="460" as="targetPoint" />
            <Array as="points">
              <mxPoint x="480" y="215" />
              <mxPoint x="480" y="440" />
              <mxPoint x="325" y="440" />
            </Array>
          </mxGeometry>
        </mxCell>
        <mxCell id="ZKd3v-_6NxZxwiEtNDbP-5" value="&lt;div style=&quot;background-color: rgb(255, 255, 255); font-family: Consolas, &amp;quot;Courier New&amp;quot;, monospace; font-size: 14px; line-height: 19px;&quot;&gt;for(&lt;span style=&quot;color: #0000ff;&quot;&gt;int&lt;/span&gt; i=&lt;span style=&quot;color: #098658;&quot;&gt;0&lt;/span&gt;;i&amp;lt;n;i++)&lt;/div&gt;" style="shape=hexagon;perimeter=hexagonPerimeter2;whiteSpace=wrap;html=1;fixedSize=1;rounded=0;" vertex="1" parent="WIyWlLk6GJQsqaUBKTNV-1">
          <mxGeometry x="219.38" y="200" width="211.25" height="30" as="geometry" />
        </mxCell>
        <mxCell id="ZKd3v-_6NxZxwiEtNDbP-10" value="" style="edgeStyle=orthogonalEdgeStyle;rounded=0;orthogonalLoop=1;jettySize=auto;html=1;" edge="1" parent="WIyWlLk6GJQsqaUBKTNV-1" source="ZKd3v-_6NxZxwiEtNDbP-7" target="ZKd3v-_6NxZxwiEtNDbP-9">
          <mxGeometry relative="1" as="geometry" />
        </mxCell>
        <mxCell id="ZKd3v-_6NxZxwiEtNDbP-12" style="edgeStyle=orthogonalEdgeStyle;rounded=0;orthogonalLoop=1;jettySize=auto;html=1;entryX=0;entryY=0.5;entryDx=0;entryDy=0;" edge="1" parent="WIyWlLk6GJQsqaUBKTNV-1" source="ZKd3v-_6NxZxwiEtNDbP-7" target="ZKd3v-_6NxZxwiEtNDbP-5">
          <mxGeometry relative="1" as="geometry">
            <Array as="points">
              <mxPoint x="450" y="285" />
              <mxPoint x="450" y="420" />
              <mxPoint x="180" y="420" />
              <mxPoint x="180" y="215" />
            </Array>
          </mxGeometry>
        </mxCell>
        <mxCell id="ZKd3v-_6NxZxwiEtNDbP-7" value="&lt;div style=&quot;background-color: rgb(255, 255, 255); font-family: Consolas, &amp;quot;Courier New&amp;quot;, monospace; font-size: 14px; line-height: 19px;&quot;&gt;&lt;div style=&quot;line-height: 19px;&quot;&gt;for(&lt;span style=&quot;color: #0000ff;&quot;&gt;int&lt;/span&gt; j=&lt;span style=&quot;color: #098658;&quot;&gt;0&lt;/span&gt;;j&amp;lt;m;j++)&lt;/div&gt;&lt;/div&gt;" style="shape=hexagon;perimeter=hexagonPerimeter2;whiteSpace=wrap;html=1;fixedSize=1;rounded=0;" vertex="1" parent="WIyWlLk6GJQsqaUBKTNV-1">
          <mxGeometry x="220" y="270" width="211.25" height="30" as="geometry" />
        </mxCell>
        <mxCell id="ZKd3v-_6NxZxwiEtNDbP-11" style="edgeStyle=orthogonalEdgeStyle;rounded=0;orthogonalLoop=1;jettySize=auto;html=1;entryX=0;entryY=0.5;entryDx=0;entryDy=0;" edge="1" parent="WIyWlLk6GJQsqaUBKTNV-1" source="ZKd3v-_6NxZxwiEtNDbP-9" target="ZKd3v-_6NxZxwiEtNDbP-7">
          <mxGeometry relative="1" as="geometry">
            <Array as="points">
              <mxPoint x="326" y="400" />
              <mxPoint x="200" y="400" />
              <mxPoint x="200" y="285" />
            </Array>
          </mxGeometry>
        </mxCell>
        <mxCell id="ZKd3v-_6NxZxwiEtNDbP-9" value="&lt;div style=&quot;background-color: rgb(255, 255, 255); font-family: Consolas, &amp;quot;Courier New&amp;quot;, monospace; font-size: 14px; line-height: 19px;&quot;&gt;matr[i][j]=rand()%100;&lt;/div&gt;" style="whiteSpace=wrap;html=1;rounded=0;" vertex="1" parent="WIyWlLk6GJQsqaUBKTNV-1">
          <mxGeometry x="228.43" y="350" width="194.38" height="25" as="geometry" />
        </mxCell>
        <mxCell id="ZKd3v-_6NxZxwiEtNDbP-15" value="" style="edgeStyle=orthogonalEdgeStyle;rounded=0;orthogonalLoop=1;jettySize=auto;html=1;" edge="1" parent="WIyWlLk6GJQsqaUBKTNV-1" source="ZKd3v-_6NxZxwiEtNDbP-17" target="ZKd3v-_6NxZxwiEtNDbP-20">
          <mxGeometry relative="1" as="geometry" />
        </mxCell>
        <mxCell id="ZKd3v-_6NxZxwiEtNDbP-39" style="edgeStyle=orthogonalEdgeStyle;rounded=0;orthogonalLoop=1;jettySize=auto;html=1;" edge="1" parent="WIyWlLk6GJQsqaUBKTNV-1" source="ZKd3v-_6NxZxwiEtNDbP-17">
          <mxGeometry relative="1" as="geometry">
            <mxPoint x="640" y="500" as="targetPoint" />
          </mxGeometry>
        </mxCell>
        <mxCell id="ZKd3v-_6NxZxwiEtNDbP-17" value="&lt;div style=&quot;background-color: rgb(255, 255, 255); font-family: Consolas, &amp;quot;Courier New&amp;quot;, monospace; font-size: 14px; line-height: 19px;&quot;&gt;for(&lt;span style=&quot;color: #0000ff;&quot;&gt;int&lt;/span&gt; i=&lt;span style=&quot;color: #098658;&quot;&gt;0&lt;/span&gt;;i&amp;lt;n;i++)&lt;/div&gt;" style="shape=hexagon;perimeter=hexagonPerimeter2;whiteSpace=wrap;html=1;fixedSize=1;rounded=0;" vertex="1" parent="WIyWlLk6GJQsqaUBKTNV-1">
          <mxGeometry x="215.01" y="460" width="211.25" height="30" as="geometry" />
        </mxCell>
        <mxCell id="ZKd3v-_6NxZxwiEtNDbP-18" value="" style="edgeStyle=orthogonalEdgeStyle;rounded=0;orthogonalLoop=1;jettySize=auto;html=1;" edge="1" parent="WIyWlLk6GJQsqaUBKTNV-1" source="ZKd3v-_6NxZxwiEtNDbP-20">
          <mxGeometry relative="1" as="geometry">
            <mxPoint x="321.33333333333326" y="610" as="targetPoint" />
          </mxGeometry>
        </mxCell>
        <mxCell id="ZKd3v-_6NxZxwiEtNDbP-36" style="edgeStyle=orthogonalEdgeStyle;rounded=0;orthogonalLoop=1;jettySize=auto;html=1;" edge="1" parent="WIyWlLk6GJQsqaUBKTNV-1" source="ZKd3v-_6NxZxwiEtNDbP-20">
          <mxGeometry relative="1" as="geometry">
            <mxPoint x="321.2550000000001" y="883.2000325520834" as="targetPoint" />
            <Array as="points">
              <mxPoint x="450" y="545" />
              <mxPoint x="450" y="860" />
              <mxPoint x="321" y="860" />
            </Array>
          </mxGeometry>
        </mxCell>
        <mxCell id="ZKd3v-_6NxZxwiEtNDbP-20" value="&lt;div style=&quot;background-color: rgb(255, 255, 255); font-family: Consolas, &amp;quot;Courier New&amp;quot;, monospace; font-size: 14px; line-height: 19px;&quot;&gt;&lt;div style=&quot;line-height: 19px;&quot;&gt;for(&lt;span style=&quot;color: #0000ff;&quot;&gt;int&lt;/span&gt; j=&lt;span style=&quot;color: #098658;&quot;&gt;0&lt;/span&gt;;j&amp;lt;m;j++)&lt;/div&gt;&lt;/div&gt;" style="shape=hexagon;perimeter=hexagonPerimeter2;whiteSpace=wrap;html=1;fixedSize=1;rounded=0;" vertex="1" parent="WIyWlLk6GJQsqaUBKTNV-1">
          <mxGeometry x="215.63" y="530" width="211.25" height="30" as="geometry" />
        </mxCell>
        <mxCell id="ZKd3v-_6NxZxwiEtNDbP-25" value="" style="edgeStyle=orthogonalEdgeStyle;rounded=0;orthogonalLoop=1;jettySize=auto;html=1;" edge="1" parent="WIyWlLk6GJQsqaUBKTNV-1" source="ZKd3v-_6NxZxwiEtNDbP-23" target="ZKd3v-_6NxZxwiEtNDbP-24">
          <mxGeometry relative="1" as="geometry" />
        </mxCell>
        <mxCell id="ZKd3v-_6NxZxwiEtNDbP-23" value="&lt;div style=&quot;background-color: rgb(255, 255, 255); font-family: Consolas, &amp;quot;Courier New&amp;quot;, monospace; font-size: 14px; line-height: 19px;&quot;&gt;cout&amp;lt;&amp;lt;matr[i][j]&lt;span style=&quot;color: #008080;&quot;&gt;&amp;lt;&amp;lt;&lt;/span&gt;&lt;span style=&quot;color: #a31515;&quot;&gt;&quot; &quot;&lt;/span&gt;;&lt;/div&gt;" style="shape=parallelogram;perimeter=parallelogramPerimeter;whiteSpace=wrap;html=1;fixedSize=1;" vertex="1" parent="WIyWlLk6GJQsqaUBKTNV-1">
          <mxGeometry x="221.89" y="610" width="198.74" height="30" as="geometry" />
        </mxCell>
        <mxCell id="ZKd3v-_6NxZxwiEtNDbP-27" value="" style="edgeStyle=orthogonalEdgeStyle;rounded=0;orthogonalLoop=1;jettySize=auto;html=1;" edge="1" parent="WIyWlLk6GJQsqaUBKTNV-1" source="ZKd3v-_6NxZxwiEtNDbP-24" target="ZKd3v-_6NxZxwiEtNDbP-26">
          <mxGeometry relative="1" as="geometry" />
        </mxCell>
        <mxCell id="ZKd3v-_6NxZxwiEtNDbP-30" style="edgeStyle=orthogonalEdgeStyle;rounded=0;orthogonalLoop=1;jettySize=auto;html=1;" edge="1" parent="WIyWlLk6GJQsqaUBKTNV-1" source="ZKd3v-_6NxZxwiEtNDbP-24">
          <mxGeometry relative="1" as="geometry">
            <mxPoint x="321.26" y="800" as="targetPoint" />
            <Array as="points">
              <mxPoint x="430" y="703" />
              <mxPoint x="430" y="800" />
            </Array>
          </mxGeometry>
        </mxCell>
        <mxCell id="ZKd3v-_6NxZxwiEtNDbP-24" value="&lt;div style=&quot;background-color: rgb(255, 255, 255); font-family: Consolas, &amp;quot;Courier New&amp;quot;, monospace; font-size: 14px; line-height: 19px;&quot;&gt;if(matr[i][j]&amp;lt;&lt;span style=&quot;color: #098658;&quot;&gt;10&lt;/span&gt;)&lt;/div&gt;" style="rhombus;whiteSpace=wrap;html=1;" vertex="1" parent="WIyWlLk6GJQsqaUBKTNV-1">
          <mxGeometry x="221.89" y="670" width="198.74" height="65" as="geometry" />
        </mxCell>
        <mxCell id="ZKd3v-_6NxZxwiEtNDbP-31" style="edgeStyle=orthogonalEdgeStyle;rounded=0;orthogonalLoop=1;jettySize=auto;html=1;" edge="1" parent="WIyWlLk6GJQsqaUBKTNV-1" source="ZKd3v-_6NxZxwiEtNDbP-26">
          <mxGeometry relative="1" as="geometry">
            <mxPoint x="320" y="800" as="targetPoint" />
            <Array as="points">
              <mxPoint x="167" y="800" />
            </Array>
          </mxGeometry>
        </mxCell>
        <mxCell id="ZKd3v-_6NxZxwiEtNDbP-26" value="&lt;div style=&quot;background-color: rgb(255, 255, 255); font-family: Consolas, &amp;quot;Courier New&amp;quot;, monospace; font-size: 14px; line-height: 19px;&quot;&gt;cout&amp;lt;&amp;lt;&lt;span style=&quot;color: #a31515;&quot;&gt;&quot; &quot;&lt;/span&gt;;&lt;/div&gt;" style="shape=parallelogram;perimeter=parallelogramPerimeter;whiteSpace=wrap;html=1;fixedSize=1;" vertex="1" parent="WIyWlLk6GJQsqaUBKTNV-1">
          <mxGeometry x="111.27" y="760" width="110.62" height="30" as="geometry" />
        </mxCell>
        <mxCell id="ZKd3v-_6NxZxwiEtNDbP-28" value="1" style="text;html=1;align=center;verticalAlign=middle;resizable=0;points=[];autosize=1;strokeColor=none;fillColor=none;" vertex="1" parent="WIyWlLk6GJQsqaUBKTNV-1">
          <mxGeometry x="185" y="668" width="30" height="30" as="geometry" />
        </mxCell>
        <mxCell id="ZKd3v-_6NxZxwiEtNDbP-29" value="0" style="text;html=1;align=center;verticalAlign=middle;resizable=0;points=[];autosize=1;strokeColor=none;fillColor=none;" vertex="1" parent="WIyWlLk6GJQsqaUBKTNV-1">
          <mxGeometry x="414" y="670" width="30" height="30" as="geometry" />
        </mxCell>
        <mxCell id="ZKd3v-_6NxZxwiEtNDbP-32" value="" style="endArrow=classic;html=1;rounded=0;entryX=0;entryY=0.5;entryDx=0;entryDy=0;" edge="1" parent="WIyWlLk6GJQsqaUBKTNV-1" target="ZKd3v-_6NxZxwiEtNDbP-20">
          <mxGeometry width="50" height="50" relative="1" as="geometry">
            <mxPoint x="320" y="800" as="sourcePoint" />
            <mxPoint x="210" y="640" as="targetPoint" />
            <Array as="points">
              <mxPoint x="320" y="840" />
              <mxPoint x="80" y="840" />
              <mxPoint x="80" y="545" />
            </Array>
          </mxGeometry>
        </mxCell>
        <mxCell id="ZKd3v-_6NxZxwiEtNDbP-38" style="edgeStyle=orthogonalEdgeStyle;rounded=0;orthogonalLoop=1;jettySize=auto;html=1;entryX=0;entryY=0.5;entryDx=0;entryDy=0;" edge="1" parent="WIyWlLk6GJQsqaUBKTNV-1" source="ZKd3v-_6NxZxwiEtNDbP-37" target="ZKd3v-_6NxZxwiEtNDbP-17">
          <mxGeometry relative="1" as="geometry">
            <Array as="points">
              <mxPoint x="321" y="930" />
              <mxPoint x="50" y="930" />
              <mxPoint x="50" y="475" />
            </Array>
          </mxGeometry>
        </mxCell>
        <mxCell id="ZKd3v-_6NxZxwiEtNDbP-37" value="&lt;div style=&quot;background-color: rgb(255, 255, 255); font-family: Consolas, &amp;quot;Courier New&amp;quot;, monospace; font-size: 14px; line-height: 19px;&quot;&gt;cout&amp;lt;&amp;lt;endl;&lt;/div&gt;" style="shape=parallelogram;perimeter=parallelogramPerimeter;whiteSpace=wrap;html=1;fixedSize=1;" vertex="1" parent="WIyWlLk6GJQsqaUBKTNV-1">
          <mxGeometry x="260.63" y="880" width="120" height="30" as="geometry" />
        </mxCell>
        <mxCell id="ZKd3v-_6NxZxwiEtNDbP-42" value="" style="edgeStyle=orthogonalEdgeStyle;rounded=0;orthogonalLoop=1;jettySize=auto;html=1;" edge="1" parent="WIyWlLk6GJQsqaUBKTNV-1" source="ZKd3v-_6NxZxwiEtNDbP-40" target="ZKd3v-_6NxZxwiEtNDbP-41">
          <mxGeometry relative="1" as="geometry" />
        </mxCell>
        <mxCell id="ZKd3v-_6NxZxwiEtNDbP-44" style="edgeStyle=orthogonalEdgeStyle;rounded=0;orthogonalLoop=1;jettySize=auto;html=1;" edge="1" parent="WIyWlLk6GJQsqaUBKTNV-1" source="ZKd3v-_6NxZxwiEtNDbP-40">
          <mxGeometry relative="1" as="geometry">
            <mxPoint x="645" y="650" as="targetPoint" />
            <Array as="points">
              <mxPoint x="760" y="520" />
              <mxPoint x="760" y="620" />
              <mxPoint x="645" y="620" />
            </Array>
          </mxGeometry>
        </mxCell>
        <mxCell id="ZKd3v-_6NxZxwiEtNDbP-40" value="&lt;div style=&quot;background-color: rgb(255, 255, 255); font-family: Consolas, &amp;quot;Courier New&amp;quot;, monospace; font-size: 14px; line-height: 19px;&quot;&gt;for(&lt;span style=&quot;color: #0000ff;&quot;&gt;int&lt;/span&gt; i=&lt;span style=&quot;color: #098658;&quot;&gt;0&lt;/span&gt;;i&amp;lt;n;i++)&lt;/div&gt;" style="shape=hexagon;perimeter=hexagonPerimeter2;whiteSpace=wrap;html=1;fixedSize=1;" vertex="1" parent="WIyWlLk6GJQsqaUBKTNV-1">
          <mxGeometry x="560" y="500" width="170" height="40" as="geometry" />
        </mxCell>
        <mxCell id="ZKd3v-_6NxZxwiEtNDbP-43" style="edgeStyle=orthogonalEdgeStyle;rounded=0;orthogonalLoop=1;jettySize=auto;html=1;entryX=0;entryY=0.5;entryDx=0;entryDy=0;" edge="1" parent="WIyWlLk6GJQsqaUBKTNV-1" source="ZKd3v-_6NxZxwiEtNDbP-41" target="ZKd3v-_6NxZxwiEtNDbP-40">
          <mxGeometry relative="1" as="geometry">
            <Array as="points">
              <mxPoint x="645" y="610" />
              <mxPoint x="540" y="610" />
              <mxPoint x="540" y="520" />
            </Array>
          </mxGeometry>
        </mxCell>
        <mxCell id="ZKd3v-_6NxZxwiEtNDbP-41" value="&lt;div style=&quot;background-color: rgb(255, 255, 255); font-family: Consolas, &amp;quot;Courier New&amp;quot;, monospace; font-size: 14px; line-height: 19px;&quot;&gt;summ+=matr[i][0];&lt;/div&gt;" style="whiteSpace=wrap;html=1;" vertex="1" parent="WIyWlLk6GJQsqaUBKTNV-1">
          <mxGeometry x="567.5" y="565" width="155" height="20" as="geometry" />
        </mxCell>
        <mxCell id="ZKd3v-_6NxZxwiEtNDbP-47" style="edgeStyle=orthogonalEdgeStyle;rounded=0;orthogonalLoop=1;jettySize=auto;html=1;entryX=0.5;entryY=0;entryDx=0;entryDy=0;" edge="1" parent="WIyWlLk6GJQsqaUBKTNV-1" source="ZKd3v-_6NxZxwiEtNDbP-45" target="ZKd3v-_6NxZxwiEtNDbP-46">
          <mxGeometry relative="1" as="geometry" />
        </mxCell>
        <mxCell id="ZKd3v-_6NxZxwiEtNDbP-45" value="&lt;div style=&quot;background-color: rgb(255, 255, 255); font-family: Consolas, &amp;quot;Courier New&amp;quot;, monospace; font-size: 14px; line-height: 19px;&quot;&gt;b=summ/n;&lt;/div&gt;" style="rounded=0;whiteSpace=wrap;html=1;" vertex="1" parent="WIyWlLk6GJQsqaUBKTNV-1">
          <mxGeometry x="610" y="650" width="70" height="20" as="geometry" />
        </mxCell>
        <mxCell id="ZKd3v-_6NxZxwiEtNDbP-48" style="edgeStyle=orthogonalEdgeStyle;rounded=0;orthogonalLoop=1;jettySize=auto;html=1;" edge="1" parent="WIyWlLk6GJQsqaUBKTNV-1" source="ZKd3v-_6NxZxwiEtNDbP-46">
          <mxGeometry relative="1" as="geometry">
            <mxPoint x="480" y="950" as="targetPoint" />
            <Array as="points">
              <mxPoint x="645" y="770" />
              <mxPoint x="481" y="770" />
              <mxPoint x="481" y="920" />
            </Array>
          </mxGeometry>
        </mxCell>
        <mxCell id="ZKd3v-_6NxZxwiEtNDbP-46" value="&lt;div style=&quot;background-color: rgb(255, 255, 255); font-family: Consolas, &amp;quot;Courier New&amp;quot;, monospace; font-size: 14px; line-height: 19px;&quot;&gt;cout&amp;lt;&amp;lt;&lt;span style=&quot;color: #a31515;&quot;&gt;&quot;\n&quot;&lt;/span&gt;&lt;span style=&quot;color: #008080;&quot;&gt;&amp;lt;&amp;lt;&lt;/span&gt;b;&lt;/div&gt;" style="shape=parallelogram;perimeter=parallelogramPerimeter;whiteSpace=wrap;html=1;fixedSize=1;" vertex="1" parent="WIyWlLk6GJQsqaUBKTNV-1">
          <mxGeometry x="565" y="698" width="160" height="20" as="geometry" />
        </mxCell>
        <mxCell id="ZKd3v-_6NxZxwiEtNDbP-49" value="" style="edgeStyle=orthogonalEdgeStyle;rounded=0;orthogonalLoop=1;jettySize=auto;html=1;" edge="1" parent="WIyWlLk6GJQsqaUBKTNV-1" source="ZKd3v-_6NxZxwiEtNDbP-50" target="ZKd3v-_6NxZxwiEtNDbP-53">
          <mxGeometry relative="1" as="geometry" />
        </mxCell>
        <mxCell id="ZKd3v-_6NxZxwiEtNDbP-66" style="edgeStyle=orthogonalEdgeStyle;rounded=0;orthogonalLoop=1;jettySize=auto;html=1;" edge="1" parent="WIyWlLk6GJQsqaUBKTNV-1" source="ZKd3v-_6NxZxwiEtNDbP-50">
          <mxGeometry relative="1" as="geometry">
            <mxPoint x="720" y="1000" as="targetPoint" />
          </mxGeometry>
        </mxCell>
        <mxCell id="ZKd3v-_6NxZxwiEtNDbP-50" value="&lt;div style=&quot;background-color: rgb(255, 255, 255); font-family: Consolas, &amp;quot;Courier New&amp;quot;, monospace; font-size: 14px; line-height: 19px;&quot;&gt;for(&lt;span style=&quot;color: #0000ff;&quot;&gt;int&lt;/span&gt; i=&lt;span style=&quot;color: #098658;&quot;&gt;0&lt;/span&gt;;i&amp;lt;n;i++)&lt;/div&gt;" style="shape=hexagon;perimeter=hexagonPerimeter2;whiteSpace=wrap;html=1;fixedSize=1;rounded=0;" vertex="1" parent="WIyWlLk6GJQsqaUBKTNV-1">
          <mxGeometry x="379.01" y="950" width="211.25" height="30" as="geometry" />
        </mxCell>
        <mxCell id="ZKd3v-_6NxZxwiEtNDbP-51" value="" style="edgeStyle=orthogonalEdgeStyle;rounded=0;orthogonalLoop=1;jettySize=auto;html=1;entryX=0.5;entryY=0;entryDx=0;entryDy=0;" edge="1" parent="WIyWlLk6GJQsqaUBKTNV-1" source="ZKd3v-_6NxZxwiEtNDbP-53" target="ZKd3v-_6NxZxwiEtNDbP-58">
          <mxGeometry relative="1" as="geometry">
            <mxPoint x="485.33333333333326" y="1100" as="targetPoint" />
          </mxGeometry>
        </mxCell>
        <mxCell id="ZKd3v-_6NxZxwiEtNDbP-52" style="edgeStyle=orthogonalEdgeStyle;rounded=0;orthogonalLoop=1;jettySize=auto;html=1;entryX=0;entryY=0.5;entryDx=0;entryDy=0;" edge="1" parent="WIyWlLk6GJQsqaUBKTNV-1" source="ZKd3v-_6NxZxwiEtNDbP-53" target="ZKd3v-_6NxZxwiEtNDbP-50">
          <mxGeometry relative="1" as="geometry">
            <mxPoint x="485.2550000000001" y="1373.2000325520835" as="targetPoint" />
            <Array as="points">
              <mxPoint x="614" y="1035" />
              <mxPoint x="614" y="1220" />
              <mxPoint x="230" y="1220" />
              <mxPoint x="230" y="965" />
            </Array>
          </mxGeometry>
        </mxCell>
        <mxCell id="ZKd3v-_6NxZxwiEtNDbP-53" value="&lt;div style=&quot;background-color: rgb(255, 255, 255); font-family: Consolas, &amp;quot;Courier New&amp;quot;, monospace; font-size: 14px; line-height: 19px;&quot;&gt;&lt;div style=&quot;line-height: 19px;&quot;&gt;for(&lt;span style=&quot;color: #0000ff;&quot;&gt;int&lt;/span&gt; j=&lt;font color=&quot;#098658&quot;&gt;1&lt;/font&gt;;j&amp;lt;m;j++)&lt;/div&gt;&lt;/div&gt;" style="shape=hexagon;perimeter=hexagonPerimeter2;whiteSpace=wrap;html=1;fixedSize=1;rounded=0;" vertex="1" parent="WIyWlLk6GJQsqaUBKTNV-1">
          <mxGeometry x="379.63" y="1020" width="211.25" height="30" as="geometry" />
        </mxCell>
        <mxCell id="ZKd3v-_6NxZxwiEtNDbP-56" value="" style="edgeStyle=orthogonalEdgeStyle;rounded=0;orthogonalLoop=1;jettySize=auto;html=1;entryX=0.5;entryY=0;entryDx=0;entryDy=0;" edge="1" parent="WIyWlLk6GJQsqaUBKTNV-1" source="ZKd3v-_6NxZxwiEtNDbP-58" target="ZKd3v-_6NxZxwiEtNDbP-65">
          <mxGeometry relative="1" as="geometry">
            <mxPoint x="330.5652173913045" y="1222" as="targetPoint" />
          </mxGeometry>
        </mxCell>
        <mxCell id="ZKd3v-_6NxZxwiEtNDbP-57" style="edgeStyle=orthogonalEdgeStyle;rounded=0;orthogonalLoop=1;jettySize=auto;html=1;" edge="1" parent="WIyWlLk6GJQsqaUBKTNV-1" source="ZKd3v-_6NxZxwiEtNDbP-58">
          <mxGeometry relative="1" as="geometry">
            <mxPoint x="480" y="1180" as="targetPoint" />
            <Array as="points">
              <mxPoint x="594" y="1103" />
              <mxPoint x="594" y="1180" />
            </Array>
          </mxGeometry>
        </mxCell>
        <mxCell id="ZKd3v-_6NxZxwiEtNDbP-58" value="&lt;div style=&quot;background-color: rgb(255, 255, 255); font-family: Consolas, &amp;quot;Courier New&amp;quot;, monospace; font-size: 14px; line-height: 19px;&quot;&gt;&lt;div style=&quot;line-height: 19px;&quot;&gt;if(matr[i][j]&amp;gt;b)&lt;/div&gt;&lt;/div&gt;" style="rhombus;whiteSpace=wrap;html=1;" vertex="1" parent="WIyWlLk6GJQsqaUBKTNV-1">
          <mxGeometry x="385.89" y="1070" width="198.74" height="65" as="geometry" />
        </mxCell>
        <mxCell id="ZKd3v-_6NxZxwiEtNDbP-61" value="1" style="text;html=1;align=center;verticalAlign=middle;resizable=0;points=[];autosize=1;strokeColor=none;fillColor=none;" vertex="1" parent="WIyWlLk6GJQsqaUBKTNV-1">
          <mxGeometry x="349" y="1130" width="30" height="30" as="geometry" />
        </mxCell>
        <mxCell id="ZKd3v-_6NxZxwiEtNDbP-62" value="" style="endArrow=classic;html=1;rounded=0;entryX=0;entryY=0.5;entryDx=0;entryDy=0;" edge="1" parent="WIyWlLk6GJQsqaUBKTNV-1" target="ZKd3v-_6NxZxwiEtNDbP-53">
          <mxGeometry width="50" height="50" relative="1" as="geometry">
            <mxPoint x="480" y="1180" as="sourcePoint" />
            <mxPoint x="374" y="1130" as="targetPoint" />
            <Array as="points">
              <mxPoint x="480" y="1200" />
              <mxPoint x="244" y="1200" />
              <mxPoint x="244" y="1035" />
            </Array>
          </mxGeometry>
        </mxCell>
        <mxCell id="ZKd3v-_6NxZxwiEtNDbP-74" style="edgeStyle=orthogonalEdgeStyle;rounded=0;orthogonalLoop=1;jettySize=auto;html=1;" edge="1" parent="WIyWlLk6GJQsqaUBKTNV-1" source="ZKd3v-_6NxZxwiEtNDbP-65">
          <mxGeometry relative="1" as="geometry">
            <mxPoint x="480" y="1180" as="targetPoint" />
            <Array as="points">
              <mxPoint x="330" y="1180" />
            </Array>
          </mxGeometry>
        </mxCell>
        <mxCell id="ZKd3v-_6NxZxwiEtNDbP-65" value="&lt;div style=&quot;background-color: rgb(255, 255, 255); font-family: Consolas, &amp;quot;Courier New&amp;quot;, monospace; font-size: 14px; line-height: 19px;&quot;&gt;s++&lt;/div&gt;" style="rounded=0;whiteSpace=wrap;html=1;" vertex="1" parent="WIyWlLk6GJQsqaUBKTNV-1">
          <mxGeometry x="305" y="1140" width="50" height="20" as="geometry" />
        </mxCell>
        <mxCell id="ZKd3v-_6NxZxwiEtNDbP-70" value="" style="edgeStyle=orthogonalEdgeStyle;rounded=0;orthogonalLoop=1;jettySize=auto;html=1;" edge="1" parent="WIyWlLk6GJQsqaUBKTNV-1" source="ZKd3v-_6NxZxwiEtNDbP-68" target="ZKd3v-_6NxZxwiEtNDbP-69">
          <mxGeometry relative="1" as="geometry" />
        </mxCell>
        <mxCell id="ZKd3v-_6NxZxwiEtNDbP-68" value="&lt;div style=&quot;background-color: rgb(255, 255, 255); font-family: Consolas, &amp;quot;Courier New&amp;quot;, monospace; font-size: 14px; line-height: 19px;&quot;&gt;cout&amp;lt;&amp;lt;&lt;span style=&quot;color: #a31515;&quot;&gt;&quot;\n&quot;&lt;/span&gt;&lt;span style=&quot;color: #008080;&quot;&gt;&amp;lt;&amp;lt;&lt;/span&gt;s;&lt;/div&gt;" style="shape=parallelogram;perimeter=parallelogramPerimeter;whiteSpace=wrap;html=1;fixedSize=1;" vertex="1" parent="WIyWlLk6GJQsqaUBKTNV-1">
          <mxGeometry x="640" y="1000" width="160" height="28" as="geometry" />
        </mxCell>
        <mxCell id="ZKd3v-_6NxZxwiEtNDbP-72" value="" style="edgeStyle=orthogonalEdgeStyle;rounded=0;orthogonalLoop=1;jettySize=auto;html=1;" edge="1" parent="WIyWlLk6GJQsqaUBKTNV-1" source="ZKd3v-_6NxZxwiEtNDbP-69" target="ZKd3v-_6NxZxwiEtNDbP-71">
          <mxGeometry relative="1" as="geometry" />
        </mxCell>
        <mxCell id="ZKd3v-_6NxZxwiEtNDbP-69" value="&lt;div style=&quot;background-color: rgb(255, 255, 255); font-family: Consolas, &amp;quot;Courier New&amp;quot;, monospace; font-size: 14px; line-height: 19px;&quot;&gt;return &lt;span style=&quot;color: #098658;&quot;&gt;0&lt;/span&gt;;&lt;/div&gt;" style="whiteSpace=wrap;html=1;" vertex="1" parent="WIyWlLk6GJQsqaUBKTNV-1">
          <mxGeometry x="675" y="1060" width="90" height="28" as="geometry" />
        </mxCell>
        <mxCell id="ZKd3v-_6NxZxwiEtNDbP-71" value="конец" style="ellipse;whiteSpace=wrap;html=1;" vertex="1" parent="WIyWlLk6GJQsqaUBKTNV-1">
          <mxGeometry x="680" y="1120" width="80" height="28" as="geometry" />
        </mxCell>
        <mxCell id="ZKd3v-_6NxZxwiEtNDbP-75" value="{" style="text;html=1;align=center;verticalAlign=middle;resizable=0;points=[];autosize=1;strokeColor=none;fillColor=none;" vertex="1" parent="WIyWlLk6GJQsqaUBKTNV-1">
          <mxGeometry x="295" y="138" width="30" height="30" as="geometry" />
        </mxCell>
        <mxCell id="ZKd3v-_6NxZxwiEtNDbP-76" value="{" style="text;html=1;align=center;verticalAlign=middle;resizable=0;points=[];autosize=1;strokeColor=none;fillColor=none;" vertex="1" parent="WIyWlLk6GJQsqaUBKTNV-1">
          <mxGeometry x="295" y="228" width="30" height="30" as="geometry" />
        </mxCell>
        <mxCell id="ZKd3v-_6NxZxwiEtNDbP-77" value="};" style="text;html=1;align=center;verticalAlign=middle;resizable=0;points=[];autosize=1;strokeColor=none;fillColor=none;" vertex="1" parent="WIyWlLk6GJQsqaUBKTNV-1">
          <mxGeometry x="445" y="288" width="30" height="30" as="geometry" />
        </mxCell>
        <mxCell id="ZKd3v-_6NxZxwiEtNDbP-78" value="{" style="text;html=1;align=center;verticalAlign=middle;resizable=0;points=[];autosize=1;strokeColor=none;fillColor=none;" vertex="1" parent="WIyWlLk6GJQsqaUBKTNV-1">
          <mxGeometry x="295" y="308" width="30" height="30" as="geometry" />
        </mxCell>
        <mxCell id="ZKd3v-_6NxZxwiEtNDbP-79" value="};" style="text;html=1;align=center;verticalAlign=middle;resizable=0;points=[];autosize=1;strokeColor=none;fillColor=none;" vertex="1" parent="WIyWlLk6GJQsqaUBKTNV-1">
          <mxGeometry x="315" y="368" width="30" height="30" as="geometry" />
        </mxCell>
        <mxCell id="ZKd3v-_6NxZxwiEtNDbP-80" value="{" style="text;html=1;align=center;verticalAlign=middle;resizable=0;points=[];autosize=1;strokeColor=none;fillColor=none;" vertex="1" parent="WIyWlLk6GJQsqaUBKTNV-1">
          <mxGeometry x="285" y="488" width="30" height="30" as="geometry" />
        </mxCell>
        <mxCell id="ZKd3v-_6NxZxwiEtNDbP-82" value="};" style="text;html=1;align=center;verticalAlign=middle;resizable=0;points=[];autosize=1;strokeColor=none;fillColor=none;" vertex="1" parent="WIyWlLk6GJQsqaUBKTNV-1">
          <mxGeometry x="315" y="908" width="30" height="30" as="geometry" />
        </mxCell>
        <mxCell id="ZKd3v-_6NxZxwiEtNDbP-83" value="{" style="text;html=1;align=center;verticalAlign=middle;resizable=0;points=[];autosize=1;strokeColor=none;fillColor=none;" vertex="1" parent="WIyWlLk6GJQsqaUBKTNV-1">
          <mxGeometry x="295" y="568" width="30" height="30" as="geometry" />
        </mxCell>
        <mxCell id="ZKd3v-_6NxZxwiEtNDbP-84" value="};" style="text;html=1;align=center;verticalAlign=middle;resizable=0;points=[];autosize=1;strokeColor=none;fillColor=none;" vertex="1" parent="WIyWlLk6GJQsqaUBKTNV-1">
          <mxGeometry x="315" y="808" width="30" height="30" as="geometry" />
        </mxCell>
        <mxCell id="ZKd3v-_6NxZxwiEtNDbP-85" value="{" style="text;html=1;align=center;verticalAlign=middle;resizable=0;points=[];autosize=1;strokeColor=none;fillColor=none;" vertex="1" parent="WIyWlLk6GJQsqaUBKTNV-1">
          <mxGeometry x="615" y="538" width="30" height="30" as="geometry" />
        </mxCell>
        <mxCell id="ZKd3v-_6NxZxwiEtNDbP-86" value="};" style="text;html=1;align=center;verticalAlign=middle;resizable=0;points=[];autosize=1;strokeColor=none;fillColor=none;" vertex="1" parent="WIyWlLk6GJQsqaUBKTNV-1">
          <mxGeometry x="645" y="588" width="30" height="30" as="geometry" />
        </mxCell>
        <mxCell id="ZKd3v-_6NxZxwiEtNDbP-87" value="};" style="text;html=1;align=center;verticalAlign=middle;resizable=0;points=[];autosize=1;strokeColor=none;fillColor=none;" vertex="1" parent="WIyWlLk6GJQsqaUBKTNV-1">
          <mxGeometry x="715" y="1088" width="30" height="30" as="geometry" />
        </mxCell>
        <mxCell id="ZKd3v-_6NxZxwiEtNDbP-88" value="{" style="text;html=1;align=center;verticalAlign=middle;resizable=0;points=[];autosize=1;strokeColor=none;fillColor=none;" vertex="1" parent="WIyWlLk6GJQsqaUBKTNV-1">
          <mxGeometry x="455" y="978" width="30" height="30" as="geometry" />
        </mxCell>
        <mxCell id="ZKd3v-_6NxZxwiEtNDbP-89" value="{" style="text;html=1;align=center;verticalAlign=middle;resizable=0;points=[];autosize=1;strokeColor=none;fillColor=none;" vertex="1" parent="WIyWlLk6GJQsqaUBKTNV-1">
          <mxGeometry x="455" y="1048" width="30" height="30" as="geometry" />
        </mxCell>
        <mxCell id="ZKd3v-_6NxZxwiEtNDbP-90" value="};" style="text;html=1;align=center;verticalAlign=middle;resizable=0;points=[];autosize=1;strokeColor=none;fillColor=none;" vertex="1" parent="WIyWlLk6GJQsqaUBKTNV-1">
          <mxGeometry x="475" y="1178" width="30" height="30" as="geometry" />
        </mxCell>
        <mxCell id="ZKd3v-_6NxZxwiEtNDbP-91" value="};" style="text;html=1;align=center;verticalAlign=middle;resizable=0;points=[];autosize=1;strokeColor=none;fillColor=none;" vertex="1" parent="WIyWlLk6GJQsqaUBKTNV-1">
          <mxGeometry x="605" y="1038" width="30" height="30" as="geometry" />
        </mxCell>
      </root>
    </mxGraphModel>
  </diagram>
</mxfile>
